A foreign traveler (Walker) unknowingly picks up a rental car that will tie him to a web of corrupt local police
 
http://www.imdb.com/title/tt1911662/
Source: Vehicle.19.2013.Dt.WEBDL

Format: AVI
Format/Info: Audio Video Interleave
Format profile: OpenDML
File size: 1.32 GiB
Duration: 1h 25mn
Overall bit rate: 2 222 Kbps
Writing application: Lavf51.12.1

Video
ID: 0
Format: AVC
Format/Info: Advanced Video Codec
Format profile: Baseline@L3.0
Format settings, CABAC: No
Format settings, ReFrames: 1 frame
Format settings, GOP: M=1, N=12
Codec ID: H264
Duration: 1h 25mn
Bit rate: 1 826 Kbps
Width: 720 pixels
Height: 304 pixels
Display aspect ratio: 2.35:1
Frame rate mode: Variable
Frame rate: 23.976 fps
Color space: YUV
Chroma subsampling: 4:2:0
Bit depth: 8 bits
Scan type: Progressive
Bits/(Pixel*Frame): 0.348
Stream size: 1.09 GiB (82%)

Audio
ID: 1
Format: AC-3
Format/Info: Audio Coding 3
Mode extension: CM (complete main)
Format settings, Endianness: Big
Codec ID: 2000
Duration: 1h 25mn
Bit rate mode: Constant
Bit rate: 384 Kbps
Channel(s): 6 channels
Channel positions: Front: L C R, Side: L R, LFE
Sampling rate: 48.0 KHz
Bit depth: 16 bits
Compression mode: Lossy
Stream size: 234 MiB (17%)
Alignment: Aligned on interleaves
Interleave, duration: 32 ms (0.77 video frame)
Interleave, preload duration: 32 ms

Screens:
 
http://i.imgur.com/L0wTVVs.png 
http://i.imgur.com/Xa3la43.png 
http://i.imgur.com/Q48B7Ar.png 
http://i.imgur.com/cknljsX.png 
http://i.imgur.com/U2jfzYw.png 
http://i.imgur.com/CjefiFt.png